<svg xmlns="http://www.w3.org/2000/svg" width="428" height="700" viewBox="0 0 428 700">
  <g id="Group_5" data-name="Group 5" transform="translate(0 -113)">
    <g id="Path_2" data-name="Path 2" transform="translate(214 813) rotate(180)" fill="#e69c2e">
      <path d="M 211.5000152587891 696.77734375 L 59.57536315917969 657.7859497070313 L 60.05796432495117 45.40839385986328 L 60.14501571655273 45.38418197631836 L 211.5000152587891 3.29011869430542 L 211.5000152587891 696.77734375 Z" stroke="none"/>
      <path d="M 209.0000152587891 6.580322265625 L 62.55647277832031 47.30841064453125 L 62.07688903808594 655.8470458984375 L 209.0000152587891 693.5547485351563 L 209.0000152587891 6.580322265625 M 214.0000152587891 0 L 214.0000152587891 700 L 57.07383728027344 659.7249755859375 L 57.56246948242188 39.68463134765625 L 59.47520446777344 42.97552490234375 L 214.0000152587891 0 Z" stroke="none" fill="#ce933c"/>
    </g>
    <g id="Path_1" data-name="Path 1" transform="translate(214 113)" fill="#e69c2e">
      <path d="M 211.4999847412109 696.7070922851563 L 61.95443344116211 654.9842529296875 L 60.06852340698242 41.62822723388672 L 211.4999847412109 3.213410139083862 L 211.4999847412109 696.7070922851563 Z" stroke="none"/>
      <path d="M 208.9999694824219 6.42669677734375 L 62.57452392578125 43.571533203125 L 64.44853210449219 653.0845947265625 L 208.9999694824219 693.4140625 L 208.9999694824219 6.42669677734375 M 213.9999694824219 0 L 213.9999694824219 700 L 59.46015930175781 656.8837890625 L 57.56251525878906 39.68463134765625 L 213.9999694824219 0 Z" stroke="none" fill="#ce933c"/>
    </g>
    <g id="Ellipse_1" data-name="Ellipse 1" transform="translate(89 113)" fill="#fff" stroke="#dedede" stroke-linejoin="round" stroke-width="5">
      <ellipse cx="125" cy="350" rx="125" ry="350" stroke="none"/>
      <ellipse cx="125" cy="350" rx="122.5" ry="347.5" fill="none"/>
    </g>
  </g>
</svg>
